<svg xmlns="http://www.w3.org/2000/svg" viewBox="0 0 2000 1400"><mask id="b" x="0" y="0" width="2000" height="1400"><path fill="url(#a)" d="M0 0h2000v1400H0z"/></mask><path fill="#fff" d="M0 0h2000v1400H0z"/><g style="transform-origin:center center" stroke="#d8d8d88f" stroke-width="2" mask="url(#b)"><path fill="none" d="M0 0h100v100H0zM100 0h100v100H100zM200 0h100v100H200zM300 0h100v100H300z"/><path fill="#d8d8d878" d="M400 0h100v100H400z"/><path fill="#d8d8d808" d="M500 0h100v100H500z"/><path fill="none" d="M600 0h100v100H600zM700 0h100v100H700zM800 0h100v100H800zM900 0h100v100H900z"/><path fill="#d8d8d826" d="M1000 0h100v100h-100z"/><path fill="#d8d8d852" d="M1100 0h100v100h-100z"/><path fill="#d8d8d805" d="M1200 0h100v100h-100z"/><path fill="#d8d8d888" d="M1300 0h100v100h-100z"/><path fill="none" d="M1400 0h100v100h-100zM1500 0h100v100h-100zM1600 0h100v100h-100zM1700 0h100v100h-100zM1800 0h100v100h-100z"/><path fill="#d8d8d816" d="M1900 0h100v100h-100z"/><path fill="none" d="M0 100h100v100H0zM100 100h100v100H100z"/><path fill="#d8d8d842" d="M200 100h100v100H200z"/><path fill="#d8d8d87d" d="M300 100h100v100H300z"/><path fill="#d8d8d836" d="M400 100h100v100H400z"/><path fill="#d8d8d82e" d="M500 100h100v100H500z"/><path fill="#d8d8d85b" d="M600 100h100v100H600z"/><path fill="#d8d8d888" d="M700 100h100v100H700z"/><path fill="none" d="M800 100h100v100H800zM900 100h100v100H900z"/><path fill="#d8d8d83a" d="M1000 100h100v100h-100z"/><path fill="none" d="M1100 100h100v100h-100z"/><path fill="#d8d8d88e" d="M1200 100h100v100h-100z"/><path fill="none" d="M1300 100h100v100h-100z"/><path fill="#d8d8d80c" d="M1400 100h100v100h-100z"/><path fill="none" d="M1500 100h100v100h-100zM1600 100h100v100h-100zM1700 100h100v100h-100z"/><path fill="#d8d8d827" d="M1800 100h100v100h-100z"/><path fill="none" d="M1900 100h100v100h-100zM0 200h100v100H0zM100 200h100v100H100zM200 200h100v100H200zM300 200h100v100H300zM400 200h100v100H400zM500 200h100v100H500zM600 200h100v100H600zM700 200h100v100H700zM800 200h100v100H800zM900 200h100v100H900zM1000 200h100v100h-100zM1100 200h100v100h-100z"/><path fill="#d8d8d838" d="M1200 200h100v100h-100z"/><path fill="none" d="M1300 200h100v100h-100zM1400 200h100v100h-100z"/><path fill="#d8d8d818" d="M1500 200h100v100h-100z"/><path fill="none" d="M1600 200h100v100h-100z"/><path fill="#d8d8d865" d="M1700 200h100v100h-100z"/><path fill="none" d="M1800 200h100v100h-100zM1900 200h100v100h-100zM0 300h100v100H0zM100 300h100v100H100zM200 300h100v100H200zM300 300h100v100H300zM400 300h100v100H400z"/><path fill="#d8d8d85a" d="M500 300h100v100H500z"/><path fill="none" d="M600 300h100v100H600zM700 300h100v100H700z"/><path fill="#d8d8d866" d="M800 300h100v100H800z"/><path fill="none" d="M900 300h100v100H900zM1000 300h100v100h-100z"/><path fill="#d8d8d871" d="M1100 300h100v100h-100z"/><path fill="none" d="M1200 300h100v100h-100z"/><path fill="#d8d8d872" d="M1300 300h100v100h-100z"/><path fill="none" d="M1400 300h100v100h-100zM1500 300h100v100h-100zM1600 300h100v100h-100zM1700 300h100v100h-100z"/><path fill="#d8d8d80d" d="M1800 300h100v100h-100z"/><path fill="none" d="M1900 300h100v100h-100zM0 400h100v100H0zM100 400h100v100H100z"/><path fill="#d8d8d838" d="M200 400h100v100H200z"/><path fill="none" d="M300 400h100v100H300z"/><path fill="#d8d8d86f" d="M400 400h100v100H400z"/><path fill="#d8d8d855" d="M500 400h100v100H500z"/><path fill="none" d="M600 400h100v100H600zM700 400h100v100H700zM800 400h100v100H800zM900 400h100v100H900zM1000 400h100v100h-100zM1100 400h100v100h-100zM1200 400h100v100h-100zM1300 400h100v100h-100zM1400 400h100v100h-100zM1500 400h100v100h-100zM1600 400h100v100h-100zM1700 400h100v100h-100zM1800 400h100v100h-100z"/><path fill="#d8d8d826" d="M1900 400h100v100h-100z"/><path fill="none" d="M0 500h100v100H0z"/><path fill="#d8d8d849" d="M100 500h100v100H100z"/><path fill="none" d="M200 500h100v100H200zM300 500h100v100H300z"/><path fill="#d8d8d838" d="M400 500h100v100H400z"/><path fill="none" d="M500 500h100v100H500zM600 500h100v100H600zM700 500h100v100H700z"/><path fill="#d8d8d811" d="M800 500h100v100H800z"/><path fill="none" d="M900 500h100v100H900z"/><path fill="#d8d8d82d" d="M1000 500h100v100h-100z"/><path fill="none" d="M1100 500h100v100h-100z"/><path fill="#d8d8d80b" d="M1200 500h100v100h-100z"/><path fill="none" d="M1300 500h100v100h-100zM1400 500h100v100h-100zM1500 500h100v100h-100zM1600 500h100v100h-100zM1700 500h100v100h-100zM1800 500h100v100h-100zM1900 500h100v100h-100zM0 600h100v100H0z"/><path fill="#d8d8d85f" d="M100 600h100v100H100z"/><path fill="none" d="M200 600h100v100H200zM300 600h100v100H300zM400 600h100v100H400zM500 600h100v100H500zM600 600h100v100H600zM700 600h100v100H700zM800 600h100v100H800z"/><path fill="#d8d8d854" d="M900 600h100v100H900z"/><path fill="none" d="M1000 600h100v100h-100z"/><path fill="#d8d8d833" d="M1100 600h100v100h-100z"/><path fill="none" d="M1200 600h100v100h-100zM1300 600h100v100h-100z"/><path fill="#d8d8d838" d="M1400 600h100v100h-100z"/><path fill="#d8d8d84e" d="M1500 600h100v100h-100z"/><path fill="none" d="M1600 600h100v100h-100zM1700 600h100v100h-100z"/><path fill="#d8d8d801" d="M1800 600h100v100h-100z"/><path fill="none" d="M1900 600h100v100h-100zM0 700h100v100H0zM100 700h100v100H100zM200 700h100v100H200z"/><path fill="#d8d8d821" d="M300 700h100v100H300z"/><path fill="none" d="M400 700h100v100H400zM500 700h100v100H500zM600 700h100v100H600zM700 700h100v100H700z"/><path fill="#d8d8d826" d="M800 700h100v100H800z"/><path fill="#d8d8d86d" d="M900 700h100v100H900z"/><path fill="none" d="M1000 700h100v100h-100zM1100 700h100v100h-100z"/><path fill="#d8d8d876" d="M1200 700h100v100h-100z"/><path fill="none" d="M1300 700h100v100h-100zM1400 700h100v100h-100zM1500 700h100v100h-100zM1600 700h100v100h-100zM1700 700h100v100h-100zM1800 700h100v100h-100zM1900 700h100v100h-100zM0 800h100v100H0zM100 800h100v100H100zM200 800h100v100H200z"/><path fill="#d8d8d859" d="M300 800h100v100H300z"/><path fill="none" d="M400 800h100v100H400z"/><path fill="#d8d8d889" d="M500 800h100v100H500z"/><path fill="#d8d8d858" d="M600 800h100v100H600z"/><path fill="none" d="M700 800h100v100H700zM800 800h100v100H800zM900 800h100v100H900zM1000 800h100v100h-100zM1100 800h100v100h-100zM1200 800h100v100h-100zM1300 800h100v100h-100zM1400 800h100v100h-100zM1500 800h100v100h-100z"/><path fill="#d8d8d831" d="M1600 800h100v100h-100z"/><path fill="none" d="M1700 800h100v100h-100zM1800 800h100v100h-100zM1900 800h100v100h-100zM0 900h100v100H0z"/><path fill="#d8d8d816" d="M100 900h100v100H100z"/><path fill="none" d="M200 900h100v100H200zM300 900h100v100H300zM400 900h100v100H400zM500 900h100v100H500z"/><path fill="#d8d8d869" d="M600 900h100v100H600z"/><path fill="#d8d8d809" d="M700 900h100v100H700z"/><path fill="none" d="M800 900h100v100H800zM900 900h100v100H900zM1000 900h100v100h-100zM1100 900h100v100h-100z"/><path fill="#d8d8d820" d="M1200 900h100v100h-100z"/><path fill="none" d="M1300 900h100v100h-100zM1400 900h100v100h-100z"/><path fill="#d8d8d82c" d="M1500 900h100v100h-100z"/><path fill="none" d="M1600 900h100v100h-100zM1700 900h100v100h-100zM1800 900h100v100h-100zM1900 900h100v100h-100z"/><path fill="#d8d8d82f" d="M0 1000h100v100H0z"/><path fill="#d8d8d881" d="M100 1000h100v100H100z"/><path fill="none" d="M200 1000h100v100H200z"/><path fill="#d8d8d85c" d="M300 1000h100v100H300z"/><path fill="none" d="M400 1000h100v100H400zM500 1000h100v100H500zM600 1000h100v100H600zM700 1000h100v100H700zM800 1000h100v100H800zM900 1000h100v100H900zM1000 1000h100v100h-100zM1100 1000h100v100h-100z"/><path fill="#d8d8d85c" d="M1200 1000h100v100h-100z"/><path fill="#d8d8d832" d="M1300 1000h100v100h-100z"/><path fill="none" d="M1400 1000h100v100h-100zM1500 1000h100v100h-100zM1600 1000h100v100h-100z"/><path fill="#d8d8d81d" d="M1700 1000h100v100h-100z"/><path fill="none" d="M1800 1000h100v100h-100zM1900 1000h100v100h-100z"/><path fill="#d8d8d853" d="M0 1100h100v100H0z"/><path fill="none" d="M100 1100h100v100H100z"/><path fill="#d8d8d849" d="M200 1100h100v100H200z"/><path fill="none" d="M300 1100h100v100H300zM400 1100h100v100H400zM500 1100h100v100H500zM600 1100h100v100H600z"/><path fill="#d8d8d81d" d="M700 1100h100v100H700z"/><path fill="none" d="M800 1100h100v100H800zM900 1100h100v100H900zM1000 1100h100v100h-100z"/><path fill="#d8d8d863" d="M1100 1100h100v100h-100z"/><path fill="#d8d8d83f" d="M1200 1100h100v100h-100z"/><path fill="none" d="M1300 1100h100v100h-100zM1400 1100h100v100h-100zM1500 1100h100v100h-100z"/><path fill="#d8d8d824" d="M1600 1100h100v100h-100z"/><path fill="none" d="M1700 1100h100v100h-100zM1800 1100h100v100h-100zM1900 1100h100v100h-100zM0 1200h100v100H0z"/><path fill="#d8d8d850" d="M100 1200h100v100H100z"/><path fill="#d8d8d87f" d="M200 1200h100v100H200z"/><path fill="none" d="M300 1200h100v100H300zM400 1200h100v100H400zM500 1200h100v100H500zM600 1200h100v100H600zM700 1200h100v100H700zM800 1200h100v100H800zM900 1200h100v100H900zM1000 1200h100v100h-100zM1100 1200h100v100h-100zM1200 1200h100v100h-100z"/><path fill="#d8d8d838" d="M1300 1200h100v100h-100z"/><path fill="#d8d8d888" d="M1400 1200h100v100h-100z"/><path fill="none" d="M1500 1200h100v100h-100zM1600 1200h100v100h-100zM1700 1200h100v100h-100zM1800 1200h100v100h-100zM1900 1200h100v100h-100zM0 1300h100v100H0zM100 1300h100v100H100zM200 1300h100v100H200zM300 1300h100v100H300z"/><path fill="#d8d8d838" d="M400 1300h100v100H400z"/><path fill="none" d="M500 1300h100v100H500zM600 1300h100v100H600zM700 1300h100v100H700zM800 1300h100v100H800z"/><path fill="#d8d8d841" d="M900 1300h100v100H900z"/><path fill="none" d="M1000 1300h100v100h-100z"/><path fill="#d8d8d862" d="M1100 1300h100v100h-100z"/><path fill="none" d="M1200 1300h100v100h-100z"/><path fill="#d8d8d842" d="M1300 1300h100v100h-100z"/><path fill="#d8d8d854" d="M1400 1300h100v100h-100z"/><path fill="none" d="M1500 1300h100v100h-100zM1600 1300h100v100h-100zM1700 1300h100v100h-100z"/><path fill="#d8d8d840" d="M1800 1300h100v100h-100z"/><path fill="none" d="M1900 1300h100v100h-100z"/></g><defs><radialGradient id="a"><stop offset="0" stop-color="#fff" stop-opacity=".838"/><stop offset="86.5%" stop-color="#fff" stop-opacity="0"/></radialGradient></defs></svg>